<svg viewBox="0 0 16 16" fill="none" xmlns="http://www.w3.org/2000/svg">
    <path
        d="M12.5 2.00049H11.5V1.50049C11.5 1.36788 11.4473 1.2407 11.3536 1.14693C11.2598 1.05317 11.1326 1.00049 11 1.00049C10.8674 1.00049 10.7402 1.05317 10.6464 1.14693C10.5527 1.2407 10.5 1.36788 10.5 1.50049V2.00049H8.5V1.50049C8.5 1.36788 8.44732 1.2407 8.35355 1.14693C8.25979 1.05317 8.13261 1.00049 8 1.00049C7.86739 1.00049 7.74021 1.05317 7.64645 1.14693C7.55268 1.2407 7.5 1.36788 7.5 1.50049V2.00049H5.5V1.50049C5.5 1.36788 5.44732 1.2407 5.35355 1.14693C5.25979 1.05317 5.13261 1.00049 5 1.00049C4.86739 1.00049 4.74021 1.05317 4.64645 1.14693C4.55268 1.2407 4.5 1.36788 4.5 1.50049V2.00049H3.5C3.23488 2.00079 2.9807 2.10625 2.79323 2.29372C2.60576 2.48119 2.5003 2.73536 2.5 3.00049V12.5005C2.50061 13.0307 2.71151 13.5391 3.08646 13.914C3.4614 14.289 3.96975 14.4999 4.5 14.5005H11.5C12.0302 14.4999 12.5386 14.289 12.9135 13.914C13.2885 13.5391 13.4994 13.0307 13.5 12.5005V3.00049C13.4997 2.73536 13.3942 2.48119 13.2068 2.29372C13.0193 2.10625 12.7651 2.00079 12.5 2.00049ZM10 10.5005H6C5.86739 10.5005 5.74021 10.4478 5.64645 10.354C5.55268 10.2603 5.5 10.1331 5.5 10.0005C5.5 9.86788 5.55268 9.7407 5.64645 9.64693C5.74021 9.55317 5.86739 9.50049 6 9.50049H10C10.1326 9.50049 10.2598 9.55317 10.3536 9.64693C10.4473 9.7407 10.5 9.86788 10.5 10.0005C10.5 10.1331 10.4473 10.2603 10.3536 10.354C10.2598 10.4478 10.1326 10.5005 10 10.5005ZM10 8.50049H6C5.86739 8.50049 5.74021 8.44781 5.64645 8.35404C5.55268 8.26027 5.5 8.1331 5.5 8.00049C5.5 7.86788 5.55268 7.7407 5.64645 7.64693C5.74021 7.55317 5.86739 7.50049 6 7.50049H10C10.1326 7.50049 10.2598 7.55317 10.3536 7.64693C10.4473 7.7407 10.5 7.86788 10.5 8.00049C10.5 8.1331 10.4473 8.26027 10.3536 8.35404C10.2598 8.44781 10.1326 8.50049 10 8.50049Z"
        fill="currentColor"></path>
</svg>